<svg width="43" height="41" viewBox="0 0 43 41" fill="none" xmlns="http://www.w3.org/2000/svg">
<rect width="43" height="40.6667" rx="7" fill="#EBEFF3"/>
<g clip-path="url(#clip0_7039_4294)">
<path d="M30.5804 15.9756C30.4714 15.5938 30.2588 15.2457 29.9638 14.9659C29.6688 14.6862 29.3016 14.4846 28.8989 14.3813C27.4245 14 21.4904 14 21.4904 14C21.4904 14 15.556 14.0115 14.0816 14.3928C13.6788 14.4962 13.3116 14.6977 13.0166 14.9775C12.7216 15.2572 12.509 15.6054 12.4001 15.9873C11.9541 18.4712 11.7811 22.2561 12.4123 24.6407C12.5213 25.0226 12.7339 25.3707 13.0289 25.6504C13.3239 25.9302 13.6911 26.1317 14.0938 26.2351C15.5682 26.6164 21.5025 26.6164 21.5025 26.6164C21.5025 26.6164 27.4366 26.6164 28.911 26.2351C29.3137 26.1317 29.6809 25.9302 29.9759 25.6504C30.271 25.3707 30.4836 25.0226 30.5926 24.6407C31.063 22.1533 31.2079 18.3707 30.5804 15.9757V15.9756Z" fill="#FF0000"/>
<path d="M19.6016 23.0124L24.5243 20.309L19.6016 17.6055V23.0124Z" fill="white"/>
</g>
<defs>
<clipPath id="clip0_7039_4294">
<rect width="19" height="12.6667" fill="white" transform="translate(12 14)"/>
</clipPath>
</defs>
</svg>
